<?xml version="1.0" encoding="utf-8" ?>
<svg xmlns="http://www.w3.org/2000/svg" xmlns:xlink="http://www.w3.org/1999/xlink" width="990" height="796">
	<path fill="#FEFEFE" transform="scale(1.77738 1.77679)" d="M249.543 116.672L250.225 116.713C250.773 117.527 250.758 191.561 250.497 198.484C248.08 200.242 245.179 201.666 242.583 203.161L227.977 211.592C232.895 214.814 238.195 217.505 243.291 220.436C245.717 221.831 248.296 223.161 250.451 224.953C250.82 230.907 250.532 237.016 250.528 242.989L250.496 283.238C250.479 291.078 250.152 299.139 250.662 306.955C243.552 303.896 234.117 298.015 227.405 293.798C226.422 275.314 227.962 256.681 227.093 238.198C224.054 236.798 221.151 234.87 218.248 233.195C213.65 230.543 208.935 227.994 204.484 225.106C202.468 226.189 200.259 227.308 198.496 228.77C198.705 235.967 198.609 243.185 198.612 250.385C198.651 259.237 198.459 268.114 198.618 276.96C194.666 275.255 190.866 272.825 187.124 270.698C183.199 268.466 178.967 266.343 175.34 263.654C174.698 255.785 175.093 247.618 175.104 239.713L175.1 199.9L175.095 175.207C175.085 170.189 174.52 164.453 175.566 159.567C177.891 157.006 194.377 148.315 198.489 146.064C198.93 156.39 198.725 166.674 198.742 177.005C198.755 185.111 199.157 193.407 198.397 201.484C207.99 196.079 217.476 190.451 227.021 184.958C227.475 180.21 227.241 175.253 227.254 170.482L227.24 143.337C227.235 139.771 226.664 133.123 227.67 129.877C228.351 127.684 246.222 118.467 249.543 116.672Z"/>
	<path fill="#FEFEFE" transform="scale(1.77738 1.77679)" d="M271.547 115.937C274.209 116.779 276.942 118.711 279.368 120.097L295.868 129.704Q313.261 139.593 330.55 149.664C336.188 152.923 341.914 156.08 347.455 159.5C347.96 163.099 347.648 167.155 347.639 170.799L347.586 193.023L347.608 238.075C347.611 246.573 347.878 255.153 347.53 263.639C344.581 265.834 341.033 267.568 337.831 269.4C333.087 272.114 328.362 274.995 323.476 277.44C322.841 263.027 323.553 248.527 323.238 234.097L309.771 226.346C304.939 223.66 300.301 220.568 295.318 218.165C295.583 221.58 295.434 225.097 295.433 228.522L295.357 249.048L295.391 275.668C295.418 280.946 295.719 286.381 295.406 291.641C295.326 292.984 295.121 293.676 294.051 294.57C292.073 296.224 273.249 306.9 271.643 306.797C271.029 305.443 271.306 298.37 271.294 296.419L271.345 181.639L271.312 140.821C271.302 132.556 271.04 124.189 271.547 115.937ZM295.359 157.224C295.522 163.602 295.431 169.999 295.429 176.38C295.427 180.955 295.631 185.67 295.172 190.224C300.072 193.243 305.167 195.97 310.146 198.859C314.593 201.44 319.057 204.391 323.77 206.444C322.685 202.683 323.282 178.848 323.536 173.585C318.422 169.753 311.967 166.632 306.384 163.407C302.877 161.381 299.102 158.652 295.359 157.224Z"/>
	<path fill="#E2E1E3" transform="scale(1.77738 1.77679)" d="M331.556 204.101C331.626 204.134 331.7 204.159 331.766 204.2C332.475 204.645 333.927 206.816 334.131 207.643C334.244 208.1 334.032 208.218 333.801 208.601C332.983 207.91 331.327 206.783 331.046 205.723C330.833 204.92 331.135 204.729 331.556 204.101Z"/>
	<path fill="#E2E1E3" transform="scale(1.77738 1.77679)" d="M282.885 252.831C283.736 253.361 284.875 254.849 285.126 255.813C285.329 256.588 285.148 256.868 284.755 257.529C283.847 256.771 282.472 255.505 282.249 254.314C282.117 253.608 282.489 253.366 282.885 252.831Z"/>
</svg>
